<mxfile host="app.diagrams.net" modified="2023-04-11T02:12:27.555Z" agent="Mozilla/5.0 (Windows NT 10.0; Win64; x64) AppleWebKit/537.36 (KHTML, like Gecko) Chrome/111.0.0.0 Safari/537.36" etag="ianixOWu7EQOn3ktdokU" version="21.1.5" type="github" pages="2">
  <diagram name="Page-1" id="7a6c530e-6e37-e111-ec74-82921da8cc10">
    <mxGraphModel dx="1434" dy="756" grid="1" gridSize="10" guides="1" tooltips="1" connect="1" arrows="1" fold="1" page="1" pageScale="1.5" pageWidth="1169" pageHeight="826" background="#184380" math="0" shadow="0">
      <root>
        <mxCell id="0" style=";html=1;" />
        <mxCell id="1" style=";html=1;" parent="0" />
        <mxCell id="23046e2b9bb16c14-116" value="Azure Group" style="whiteSpace=wrap;html=1;rounded=1;shadow=0;strokeColor=none;strokeWidth=2;fillColor=#009BFF;fontSize=20;fontColor=#FFFFFF;align=center;arcSize=3;verticalAlign=top;spacingTop=4;" parent="1" vertex="1">
          <mxGeometry x="287" y="217" width="1180" height="550" as="geometry" />
        </mxCell>
        <mxCell id="23046e2b9bb16c14-64" value="Web role instances" style="rounded=1;whiteSpace=wrap;html=1;shadow=0;strokeWidth=2;fillColor=#0072BC;fontSize=12;fontColor=#FFFFFF;align=center;strokeColor=none;arcSize=3;verticalAlign=top;" parent="1" vertex="1">
          <mxGeometry x="1286" y="291" width="150" height="420" as="geometry" />
        </mxCell>
        <mxCell id="23046e2b9bb16c14-27" value="" style="rounded=1;whiteSpace=wrap;html=1;shadow=0;strokeWidth=2;fillColor=#8BC63E;fontSize=12;fontColor=#000000;align=center;strokeColor=none;arcSize=3;" parent="1" vertex="1">
          <mxGeometry x="726" y="291" width="530" height="420" as="geometry" />
        </mxCell>
        <mxCell id="23046e2b9bb16c14-2" value="" style="rounded=1;whiteSpace=wrap;html=1;shadow=0;strokeWidth=2;fillColor=none;fontSize=12;fontColor=#000000;align=center;strokeColor=#FFFFFF;arcSize=10;" parent="1" vertex="1">
          <mxGeometry x="876" y="420" width="160" height="241" as="geometry" />
        </mxCell>
        <mxCell id="23046e2b9bb16c14-54" value="Availability set" style="rounded=1;whiteSpace=wrap;html=1;shadow=0;strokeWidth=2;fillColor=none;fontSize=11;fontColor=#FFFFFF;align=center;strokeColor=#FFFFFF;dashed=1;verticalAlign=top;" parent="1" vertex="1">
          <mxGeometry x="956" y="441" width="70" height="211" as="geometry" />
        </mxCell>
        <mxCell id="23046e2b9bb16c14-28" value="On-premises networks" style="rounded=1;whiteSpace=wrap;html=1;shadow=0;strokeWidth=2;fillColor=#F04D22;fontSize=12;fontColor=#FFFFFF;align=center;strokeColor=none;arcSize=6;verticalAlign=top;" parent="1" vertex="1">
          <mxGeometry x="466" y="378" width="230" height="330" as="geometry" />
        </mxCell>
        <mxCell id="23046e2b9bb16c14-49" value="" style="rounded=1;whiteSpace=wrap;html=1;shadow=0;strokeWidth=2;fillColor=none;fontSize=12;fontColor=#000000;align=center;strokeColor=#FFFFFF;" parent="1" vertex="1">
          <mxGeometry x="486" y="410" width="80" height="218" as="geometry" />
        </mxCell>
        <mxCell id="23046e2b9bb16c14-1" value="" style="rounded=1;whiteSpace=wrap;html=1;shadow=0;strokeWidth=2;fillColor=none;fontSize=12;fontColor=#000000;align=center;strokeColor=#FFFFFF;" parent="1" vertex="1">
          <mxGeometry x="746" y="420" width="110" height="221" as="geometry" />
        </mxCell>
        <mxCell id="24964f25f45c63f1-1" value="" style="verticalLabelPosition=bottom;html=1;verticalAlign=top;strokeColor=none;fillColor=#FFFFFF;shape=mxgraph.azure.computer;rounded=0;shadow=0;fontSize=12;fontColor=#000000;align=center;" parent="1" vertex="1">
          <mxGeometry x="501" y="424" width="50" height="45" as="geometry" />
        </mxCell>
        <mxCell id="24964f25f45c63f1-2" value="" style="verticalLabelPosition=bottom;html=1;verticalAlign=top;strokeColor=none;fillColor=#FFFFFF;shape=mxgraph.azure.computer;rounded=0;shadow=0;fontSize=12;fontColor=#000000;align=center;" parent="1" vertex="1">
          <mxGeometry x="501" y="494" width="50" height="45" as="geometry" />
        </mxCell>
        <mxCell id="24964f25f45c63f1-3" value="" style="verticalLabelPosition=bottom;html=1;verticalAlign=top;strokeColor=none;fillColor=#FFFFFF;shape=mxgraph.azure.computer;rounded=0;shadow=0;fontSize=12;fontColor=#000000;align=center;" parent="1" vertex="1">
          <mxGeometry x="501" y="564" width="50" height="45" as="geometry" />
        </mxCell>
        <mxCell id="23046e2b9bb16c14-73" style="html=1;startArrow=none;startFill=0;startSize=10;endArrow=none;endFill=0;endSize=10;strokeWidth=3;fontSize=11;fontColor=#FFFFFF;strokeColor=#FFFFFF;rounded=0;" parent="1" source="24964f25f45c63f1-5" target="23046e2b9bb16c14-7" edge="1">
          <mxGeometry relative="1" as="geometry" />
        </mxCell>
        <mxCell id="24964f25f45c63f1-5" value="Gateway" style="shadow=0;dashed=0;html=1;strokeColor=none;shape=mxgraph.mscae.enterprise.gateway;fillColor=#FFFFFF;rounded=0;fontSize=12;fontColor=#FFFFFF;align=center;labelPosition=center;verticalLabelPosition=top;verticalAlign=bottom;" parent="1" vertex="1">
          <mxGeometry x="773" y="541" width="50" height="50" as="geometry" />
        </mxCell>
        <mxCell id="24964f25f45c63f1-6" value="" style="shadow=0;dashed=0;html=1;strokeColor=none;shape=mxgraph.mscae.enterprise.lock;fillColor=#FFFFFF;rounded=0;fontSize=12;fontColor=#000000;align=center;" parent="1" vertex="1">
          <mxGeometry x="896" y="436" width="39" height="50" as="geometry" />
        </mxCell>
        <mxCell id="23046e2b9bb16c14-7" value="" style="shadow=0;dashed=0;html=1;strokeColor=none;labelPosition=center;verticalLabelPosition=bottom;verticalAlign=top;shape=mxgraph.mscae.cloud.azure_load_balancer_feature;fillColor=#FFFFFF;rounded=1;fontSize=12;fontColor=#000000;align=center;" parent="1" vertex="1">
          <mxGeometry x="891" y="541" width="50" height="50" as="geometry" />
        </mxCell>
        <mxCell id="23046e2b9bb16c14-75" style="html=1;startArrow=none;startFill=0;startSize=10;endArrow=none;endFill=0;endSize=10;strokeWidth=3;fontSize=11;fontColor=#FFFFFF;entryX=0.793;entryY=0.26;entryPerimeter=0;strokeColor=#FFFFFF;rounded=0;" parent="1" source="23046e2b9bb16c14-29" target="23046e2b9bb16c14-7" edge="1">
          <mxGeometry relative="1" as="geometry" />
        </mxCell>
        <mxCell id="23046e2b9bb16c14-29" value="" style="verticalLabelPosition=bottom;html=1;verticalAlign=top;strokeColor=none;fillColor=#FFFFFF;shape=mxgraph.azure.virtual_machine;rounded=1;shadow=0;fontSize=12;fontColor=#000000;align=center;" parent="1" vertex="1">
          <mxGeometry x="966" y="493" width="50" height="40" as="geometry" />
        </mxCell>
        <mxCell id="23046e2b9bb16c14-76" style="html=1;entryX=1.016;entryY=0.509;entryPerimeter=0;startArrow=none;startFill=0;startSize=10;endArrow=none;endFill=0;endSize=10;strokeWidth=3;fontSize=11;fontColor=#FFFFFF;strokeColor=#FFFFFF;rounded=0;" parent="1" source="23046e2b9bb16c14-30" target="23046e2b9bb16c14-7" edge="1">
          <mxGeometry relative="1" as="geometry" />
        </mxCell>
        <mxCell id="23046e2b9bb16c14-30" value="" style="verticalLabelPosition=bottom;html=1;verticalAlign=top;strokeColor=none;fillColor=#FFFFFF;shape=mxgraph.azure.virtual_machine;rounded=1;shadow=0;fontSize=12;fontColor=#000000;align=center;" parent="1" vertex="1">
          <mxGeometry x="966" y="546" width="50" height="40" as="geometry" />
        </mxCell>
        <mxCell id="23046e2b9bb16c14-77" style="html=1;entryX=0.802;entryY=0.762;entryPerimeter=0;startArrow=none;startFill=0;startSize=10;endArrow=none;endFill=0;endSize=10;strokeWidth=3;fontSize=11;fontColor=#FFFFFF;strokeColor=#FFFFFF;rounded=0;" parent="1" source="23046e2b9bb16c14-31" target="23046e2b9bb16c14-7" edge="1">
          <mxGeometry relative="1" as="geometry" />
        </mxCell>
        <mxCell id="23046e2b9bb16c14-31" value="" style="verticalLabelPosition=bottom;html=1;verticalAlign=top;strokeColor=none;fillColor=#FFFFFF;shape=mxgraph.azure.virtual_machine;rounded=1;shadow=0;fontSize=12;fontColor=#000000;align=center;" parent="1" vertex="1">
          <mxGeometry x="966" y="598" width="50" height="40" as="geometry" />
        </mxCell>
        <mxCell id="23046e2b9bb16c14-48" value="Azure Vnet" style="shadow=0;dashed=0;html=1;strokeColor=none;fillColor=#FFFFFF;labelPosition=center;verticalLabelPosition=bottom;verticalAlign=top;shape=mxgraph.office.clouds.azure;rounded=1;fontSize=12;fontColor=#FFFFFF;align=center;" parent="1" vertex="1">
          <mxGeometry x="756" y="311" width="83" height="53" as="geometry" />
        </mxCell>
        <mxCell id="23046e2b9bb16c14-50" value="" style="rounded=1;whiteSpace=wrap;html=1;shadow=0;strokeWidth=2;fillColor=none;fontSize=12;fontColor=#000000;align=center;strokeColor=#FFFFFF;" parent="1" vertex="1">
          <mxGeometry x="596" y="409" width="80" height="218" as="geometry" />
        </mxCell>
        <mxCell id="23046e2b9bb16c14-51" value="" style="verticalLabelPosition=bottom;html=1;verticalAlign=top;strokeColor=none;fillColor=#FFFFFF;shape=mxgraph.azure.computer;rounded=0;shadow=0;fontSize=12;fontColor=#000000;align=center;" parent="1" vertex="1">
          <mxGeometry x="611" y="423" width="50" height="45" as="geometry" />
        </mxCell>
        <mxCell id="23046e2b9bb16c14-52" value="" style="verticalLabelPosition=bottom;html=1;verticalAlign=top;strokeColor=none;fillColor=#FFFFFF;shape=mxgraph.azure.computer;rounded=0;shadow=0;fontSize=12;fontColor=#000000;align=center;" parent="1" vertex="1">
          <mxGeometry x="611" y="493" width="50" height="45" as="geometry" />
        </mxCell>
        <mxCell id="23046e2b9bb16c14-53" value="" style="verticalLabelPosition=bottom;html=1;verticalAlign=top;strokeColor=none;fillColor=#FFFFFF;shape=mxgraph.azure.computer;rounded=0;shadow=0;fontSize=12;fontColor=#000000;align=center;" parent="1" vertex="1">
          <mxGeometry x="611" y="563" width="50" height="45" as="geometry" />
        </mxCell>
        <mxCell id="23046e2b9bb16c14-71" style="edgeStyle=orthogonalEdgeStyle;html=1;startArrow=none;startFill=0;startSize=10;endArrow=none;endFill=0;endSize=10;strokeWidth=3;fontSize=11;fontColor=#FFFFFF;strokeColor=#FFFFFF;dashed=1;rounded=0;" parent="1" source="24964f25f45c63f1-4" target="24964f25f45c63f1-5" edge="1">
          <mxGeometry relative="1" as="geometry">
            <Array as="points">
              <mxPoint x="581" y="730" />
              <mxPoint x="798" y="730" />
            </Array>
          </mxGeometry>
        </mxCell>
        <mxCell id="24964f25f45c63f1-4" value="Gateway" style="shadow=0;dashed=0;html=1;strokeColor=none;shape=mxgraph.mscae.enterprise.gateway;fillColor=#FFFFFF;rounded=0;fontSize=12;fontColor=#FFFFFF;align=center;labelPosition=center;verticalLabelPosition=top;verticalAlign=bottom;" parent="1" vertex="1">
          <mxGeometry x="556" y="648" width="50" height="50" as="geometry" />
        </mxCell>
        <mxCell id="23046e2b9bb16c14-55" value="" style="rounded=1;whiteSpace=wrap;html=1;shadow=0;strokeWidth=2;fillColor=none;fontSize=12;fontColor=#000000;align=center;strokeColor=#FFFFFF;arcSize=9;" parent="1" vertex="1">
          <mxGeometry x="1071" y="420" width="160" height="241" as="geometry" />
        </mxCell>
        <mxCell id="23046e2b9bb16c14-56" value="&lt;span&gt;Availability set&lt;/span&gt;" style="rounded=1;whiteSpace=wrap;html=1;shadow=0;strokeWidth=2;fillColor=none;fontSize=11;fontColor=#FFFFFF;align=center;strokeColor=#FFFFFF;dashed=1;verticalAlign=top;" parent="1" vertex="1">
          <mxGeometry x="1151" y="441" width="70" height="211" as="geometry" />
        </mxCell>
        <mxCell id="23046e2b9bb16c14-57" value="" style="shadow=0;dashed=0;html=1;strokeColor=none;shape=mxgraph.mscae.enterprise.lock;fillColor=#FFFFFF;rounded=0;fontSize=12;fontColor=#000000;align=center;" parent="1" vertex="1">
          <mxGeometry x="1091" y="436" width="39" height="50" as="geometry" />
        </mxCell>
        <mxCell id="23046e2b9bb16c14-74" style="html=1;startArrow=none;startFill=0;startSize=10;endArrow=none;endFill=0;endSize=10;strokeWidth=3;fontSize=11;fontColor=#FFFFFF;strokeColor=#FFFFFF;rounded=0;edgeStyle=elbowEdgeStyle;elbow=vertical;" parent="1" source="23046e2b9bb16c14-58" target="23046e2b9bb16c14-2" edge="1">
          <mxGeometry relative="1" as="geometry" />
        </mxCell>
        <mxCell id="23046e2b9bb16c14-78" style="edgeStyle=orthogonalEdgeStyle;html=1;startArrow=none;startFill=0;startSize=10;endArrow=none;endFill=0;endSize=10;strokeWidth=3;fontSize=11;fontColor=#FFFFFF;strokeColor=#FFFFFF;rounded=0;" parent="1" source="23046e2b9bb16c14-58" target="23046e2b9bb16c14-60" edge="1">
          <mxGeometry relative="1" as="geometry" />
        </mxCell>
        <mxCell id="23046e2b9bb16c14-79" style="html=1;startArrow=none;startFill=0;startSize=10;endArrow=none;endFill=0;endSize=10;strokeWidth=3;fontSize=11;fontColor=#FFFFFF;strokeColor=#FFFFFF;rounded=0;exitX=0.796;exitY=0.241;exitPerimeter=0;" parent="1" source="23046e2b9bb16c14-58" target="23046e2b9bb16c14-59" edge="1">
          <mxGeometry relative="1" as="geometry" />
        </mxCell>
        <mxCell id="23046e2b9bb16c14-80" style="html=1;startArrow=none;startFill=0;startSize=10;endArrow=none;endFill=0;endSize=10;strokeWidth=3;fontSize=11;fontColor=#FFFFFF;strokeColor=#FFFFFF;rounded=0;exitX=0.789;exitY=0.767;exitPerimeter=0;" parent="1" source="23046e2b9bb16c14-58" target="23046e2b9bb16c14-61" edge="1">
          <mxGeometry relative="1" as="geometry" />
        </mxCell>
        <mxCell id="23046e2b9bb16c14-58" value="" style="shadow=0;dashed=0;html=1;strokeColor=none;labelPosition=center;verticalLabelPosition=bottom;verticalAlign=top;shape=mxgraph.mscae.cloud.azure_load_balancer_feature;fillColor=#FFFFFF;rounded=1;fontSize=12;fontColor=#000000;align=center;" parent="1" vertex="1">
          <mxGeometry x="1086" y="541" width="50" height="50" as="geometry" />
        </mxCell>
        <mxCell id="23046e2b9bb16c14-59" value="" style="verticalLabelPosition=bottom;html=1;verticalAlign=top;strokeColor=none;fillColor=#FFFFFF;shape=mxgraph.azure.virtual_machine;rounded=1;shadow=0;fontSize=12;fontColor=#000000;align=center;" parent="1" vertex="1">
          <mxGeometry x="1161" y="493" width="50" height="40" as="geometry" />
        </mxCell>
        <mxCell id="23046e2b9bb16c14-60" value="" style="verticalLabelPosition=bottom;html=1;verticalAlign=top;strokeColor=none;fillColor=#FFFFFF;shape=mxgraph.azure.virtual_machine;rounded=1;shadow=0;fontSize=12;fontColor=#000000;align=center;" parent="1" vertex="1">
          <mxGeometry x="1161" y="546" width="50" height="40" as="geometry" />
        </mxCell>
        <mxCell id="23046e2b9bb16c14-61" value="" style="verticalLabelPosition=bottom;html=1;verticalAlign=top;strokeColor=none;fillColor=#FFFFFF;shape=mxgraph.azure.virtual_machine;rounded=1;shadow=0;fontSize=12;fontColor=#000000;align=center;" parent="1" vertex="1">
          <mxGeometry x="1161" y="598" width="50" height="40" as="geometry" />
        </mxCell>
        <mxCell id="23046e2b9bb16c14-69" style="edgeStyle=orthogonalEdgeStyle;html=1;startArrow=none;startFill=0;startSize=10;endArrow=none;endFill=0;endSize=10;strokeWidth=3;fontSize=11;fontColor=#FFFFFF;strokeColor=#FFFFFF;dashed=1;rounded=0;" parent="1" source="23046e2b9bb16c14-62" target="23046e2b9bb16c14-63" edge="1">
          <mxGeometry relative="1" as="geometry" />
        </mxCell>
        <mxCell id="23046e2b9bb16c14-62" value="Firewall" style="shadow=0;dashed=0;html=1;strokeColor=none;labelPosition=right;verticalLabelPosition=middle;verticalAlign=middle;shape=mxgraph.office.concepts.firewall;fillColor=#FFFFFF;rounded=1;fontSize=11;fontColor=#FFFFFF;align=left;spacingLeft=5;" parent="1" vertex="1">
          <mxGeometry x="328" y="475" width="47" height="43" as="geometry" />
        </mxCell>
        <mxCell id="23046e2b9bb16c14-70" style="edgeStyle=orthogonalEdgeStyle;html=1;startArrow=none;startFill=0;startSize=10;endArrow=none;endFill=0;endSize=10;strokeWidth=3;fontSize=11;fontColor=#FFFFFF;strokeColor=#FFFFFF;dashed=1;rounded=0;" parent="1" source="24964f25f45c63f1-4" target="23046e2b9bb16c14-68" edge="1">
          <mxGeometry relative="1" as="geometry">
            <mxPoint x="606" y="730" as="sourcePoint" />
            <Array as="points">
              <mxPoint x="581" y="730" />
              <mxPoint x="1361" y="730" />
            </Array>
          </mxGeometry>
        </mxCell>
        <mxCell id="23046e2b9bb16c14-72" style="edgeStyle=orthogonalEdgeStyle;html=1;startArrow=none;startFill=0;startSize=10;endArrow=none;endFill=0;endSize=10;strokeWidth=3;fontSize=11;fontColor=#FFFFFF;strokeColor=#FFFFFF;dashed=1;rounded=0;" parent="1" source="23046e2b9bb16c14-63" target="24964f25f45c63f1-4" edge="1">
          <mxGeometry relative="1" as="geometry">
            <Array as="points">
              <mxPoint x="351" y="730" />
              <mxPoint x="581" y="730" />
            </Array>
          </mxGeometry>
        </mxCell>
        <mxCell id="23046e2b9bb16c14-63" value="Windows&lt;div&gt;Azure&lt;/div&gt;&lt;div&gt;Load&lt;/div&gt;&lt;div&gt;Balancer&lt;/div&gt;" style="verticalLabelPosition=middle;html=1;verticalAlign=middle;strokeColor=none;fillColor=#FFFFFF;shape=mxgraph.azure.azure_load_balancer;rounded=1;shadow=0;dashed=1;fontSize=11;fontColor=#FFFFFF;align=left;labelPosition=right;spacingLeft=5;" parent="1" vertex="1">
          <mxGeometry x="326" y="593" width="50" height="35" as="geometry" />
        </mxCell>
        <mxCell id="23046e2b9bb16c14-65" value="" style="shadow=0;dashed=0;html=1;strokeColor=none;shape=mxgraph.mscae.enterprise.web;fillColor=#FFFFFF;rounded=1;fontSize=11;fontColor=#FFFFFF;align=center;" parent="1" vertex="1">
          <mxGeometry x="1336" y="531" width="50" height="50" as="geometry" />
        </mxCell>
        <mxCell id="23046e2b9bb16c14-66" value="" style="shadow=0;dashed=0;html=1;strokeColor=none;shape=mxgraph.mscae.enterprise.web;fillColor=#FFFFFF;rounded=1;fontSize=11;fontColor=#FFFFFF;align=center;" parent="1" vertex="1">
          <mxGeometry x="1336" y="450" width="50" height="50" as="geometry" />
        </mxCell>
        <mxCell id="23046e2b9bb16c14-67" value="" style="shadow=0;dashed=0;html=1;strokeColor=none;shape=mxgraph.mscae.enterprise.web;fillColor=#FFFFFF;rounded=1;fontSize=11;fontColor=#FFFFFF;align=center;" parent="1" vertex="1">
          <mxGeometry x="1336" y="370" width="50" height="50" as="geometry" />
        </mxCell>
        <mxCell id="23046e2b9bb16c14-117" style="edgeStyle=orthogonalEdgeStyle;rounded=0;elbow=vertical;html=1;startArrow=none;startFill=0;startSize=10;endArrow=none;endFill=0;endSize=10;strokeColor=#FFFFFF;strokeWidth=3;fontSize=20;fontColor=#FFFFFF;entryX=0.004;entryY=0.516;entryPerimeter=0;" parent="1" source="23046e2b9bb16c14-68" target="23046e2b9bb16c14-65" edge="1">
          <mxGeometry relative="1" as="geometry">
            <mxPoint x="1520" y="590" as="targetPoint" />
            <Array as="points">
              <mxPoint x="1326" y="673" />
              <mxPoint x="1326" y="557" />
            </Array>
          </mxGeometry>
        </mxCell>
        <mxCell id="23046e2b9bb16c14-119" style="edgeStyle=orthogonalEdgeStyle;rounded=0;elbow=vertical;html=1;entryX=-0.002;entryY=0.494;entryPerimeter=0;startArrow=none;startFill=0;startSize=10;endArrow=none;endFill=0;endSize=10;strokeColor=#FFFFFF;strokeWidth=3;fontSize=20;fontColor=#FFFFFF;" parent="1" source="23046e2b9bb16c14-68" target="23046e2b9bb16c14-67" edge="1">
          <mxGeometry relative="1" as="geometry">
            <Array as="points">
              <mxPoint x="1326" y="673" />
              <mxPoint x="1326" y="395" />
            </Array>
          </mxGeometry>
        </mxCell>
        <mxCell id="23046e2b9bb16c14-68" value="Gateway" style="shadow=0;dashed=0;html=1;strokeColor=none;shape=mxgraph.mscae.enterprise.gateway;fillColor=#FFFFFF;rounded=0;fontSize=12;fontColor=#FFFFFF;align=center;labelPosition=center;verticalLabelPosition=top;verticalAlign=bottom;" parent="1" vertex="1">
          <mxGeometry x="1336" y="648" width="50" height="50" as="geometry" />
        </mxCell>
        <mxCell id="23046e2b9bb16c14-81" value="A" style="text;html=1;strokeColor=none;fillColor=none;align=center;verticalAlign=middle;whiteSpace=wrap;rounded=1;shadow=0;fontSize=11;fontColor=#FFFFFF;fontStyle=1" parent="1" vertex="1">
          <mxGeometry x="666" y="678" width="20" height="20" as="geometry" />
        </mxCell>
        <mxCell id="23046e2b9bb16c14-82" value="B" style="text;html=1;strokeColor=none;fillColor=none;align=center;verticalAlign=middle;whiteSpace=wrap;rounded=1;shadow=0;fontSize=11;fontColor=#FFFFFF;fontStyle=1" parent="1" vertex="1">
          <mxGeometry x="1226" y="678" width="20" height="20" as="geometry" />
        </mxCell>
        <mxCell id="23046e2b9bb16c14-83" value="C" style="text;html=1;strokeColor=none;fillColor=none;align=center;verticalAlign=middle;whiteSpace=wrap;rounded=1;shadow=0;fontSize=11;fontColor=#FFFFFF;fontStyle=1" parent="1" vertex="1">
          <mxGeometry x="1406" y="680" width="20" height="20" as="geometry" />
        </mxCell>
        <mxCell id="23046e2b9bb16c14-84" value="" style="rounded=0;whiteSpace=wrap;html=1;shadow=0;strokeWidth=2;fillColor=#F04D22;fontSize=12;fontColor=#FFFFFF;align=center;strokeColor=none;arcSize=6;verticalAlign=top;" parent="1" vertex="1">
          <mxGeometry x="326" y="820" width="300" height="102" as="geometry" />
        </mxCell>
        <mxCell id="23046e2b9bb16c14-85" value="" style="rounded=0;whiteSpace=wrap;html=1;shadow=0;strokeWidth=2;fillColor=#8BC63E;fontSize=12;fontColor=#FFFFFF;align=center;strokeColor=none;arcSize=6;verticalAlign=top;" parent="1" vertex="1">
          <mxGeometry x="626" y="820" width="400" height="102" as="geometry" />
        </mxCell>
        <mxCell id="23046e2b9bb16c14-86" value="" style="rounded=0;whiteSpace=wrap;html=1;shadow=0;strokeWidth=2;fillColor=#0072BC;fontSize=12;fontColor=#FFFFFF;align=center;strokeColor=none;arcSize=3;verticalAlign=top;" parent="1" vertex="1">
          <mxGeometry x="1026" y="820" width="390" height="102" as="geometry" />
        </mxCell>
        <mxCell id="23046e2b9bb16c14-87" value="A" style="text;html=1;strokeColor=none;fillColor=none;align=center;verticalAlign=middle;whiteSpace=wrap;rounded=1;shadow=0;fontSize=30;fontColor=#FFFFFF;fontStyle=1" parent="1" vertex="1">
          <mxGeometry x="326" y="853" width="40" height="35" as="geometry" />
        </mxCell>
        <mxCell id="23046e2b9bb16c14-88" value="B" style="text;html=1;strokeColor=none;fillColor=none;align=center;verticalAlign=middle;whiteSpace=wrap;rounded=1;shadow=0;fontSize=30;fontColor=#FFFFFF;fontStyle=1" parent="1" vertex="1">
          <mxGeometry x="626" y="853" width="40" height="35" as="geometry" />
        </mxCell>
        <mxCell id="23046e2b9bb16c14-89" value="C" style="text;html=1;strokeColor=none;fillColor=none;align=center;verticalAlign=middle;whiteSpace=wrap;rounded=1;shadow=0;fontSize=30;fontColor=#FFFFFF;fontStyle=1" parent="1" vertex="1">
          <mxGeometry x="1026" y="853" width="40" height="35" as="geometry" />
        </mxCell>
        <mxCell id="23046e2b9bb16c14-90" value="Computer" style="verticalLabelPosition=top;html=1;verticalAlign=bottom;strokeColor=none;fillColor=#FFFFFF;shape=mxgraph.azure.computer;rounded=0;shadow=0;fontSize=10;fontColor=#FFFFFF;align=center;labelPosition=center;" parent="1" vertex="1">
          <mxGeometry x="393" y="860" width="50" height="45" as="geometry" />
        </mxCell>
        <mxCell id="23046e2b9bb16c14-91" value="VHD" style="shadow=0;html=1;strokeColor=none;fillColor=#FFFFFF;labelPosition=center;verticalLabelPosition=top;verticalAlign=bottom;shape=mxgraph.azure.vhd;rounded=0;fontSize=10;fontColor=#FFFFFF;align=center;" parent="1" vertex="1">
          <mxGeometry x="483" y="857" width="40" height="50" as="geometry" />
        </mxCell>
        <mxCell id="23046e2b9bb16c14-92" value="+" style="text;html=1;strokeColor=none;fillColor=none;align=center;verticalAlign=middle;whiteSpace=wrap;rounded=1;shadow=0;fontSize=30;fontColor=#FFFFFF;fontStyle=1" parent="1" vertex="1">
          <mxGeometry x="443" y="865" width="40" height="35" as="geometry" />
        </mxCell>
        <mxCell id="23046e2b9bb16c14-93" value="+" style="text;html=1;strokeColor=none;fillColor=none;align=center;verticalAlign=middle;whiteSpace=wrap;rounded=1;shadow=0;fontSize=30;fontColor=#FFFFFF;fontStyle=1" parent="1" vertex="1">
          <mxGeometry x="523" y="865" width="40" height="35" as="geometry" />
        </mxCell>
        <mxCell id="23046e2b9bb16c14-94" value="Server&lt;div&gt;Directory&lt;/div&gt;" style="shadow=0;html=1;strokeColor=none;shape=mxgraph.mscae.enterprise.server_directory;fillColor=#FFFFFF;rounded=0;fontSize=10;fontColor=#FFFFFF;align=center;verticalAlign=bottom;labelPosition=center;verticalLabelPosition=top;" parent="1" vertex="1">
          <mxGeometry x="563" y="858" width="36" height="50" as="geometry" />
        </mxCell>
        <mxCell id="23046e2b9bb16c14-95" value="VM Feature" style="shadow=0;html=1;strokeColor=none;fillColor=#FFFFFF;labelPosition=center;verticalLabelPosition=top;verticalAlign=bottom;shape=mxgraph.azure.virtual_machine_feature;rounded=0;fontSize=10;fontColor=#FFFFFF;align=center;" parent="1" vertex="1">
          <mxGeometry x="684" y="861" width="50" height="45" as="geometry" />
        </mxCell>
        <mxCell id="23046e2b9bb16c14-96" value="+" style="text;html=1;strokeColor=none;fillColor=none;align=center;verticalAlign=middle;whiteSpace=wrap;rounded=1;shadow=0;fontSize=30;fontColor=#FFFFFF;fontStyle=1" parent="1" vertex="1">
          <mxGeometry x="734" y="866" width="40" height="35" as="geometry" />
        </mxCell>
        <mxCell id="23046e2b9bb16c14-97" value="VHD" style="shadow=0;html=1;strokeColor=none;fillColor=#FFFFFF;labelPosition=center;verticalLabelPosition=top;verticalAlign=bottom;shape=mxgraph.azure.vhd;rounded=0;fontSize=10;fontColor=#FFFFFF;align=center;" parent="1" vertex="1">
          <mxGeometry x="774" y="858" width="40" height="50" as="geometry" />
        </mxCell>
        <mxCell id="23046e2b9bb16c14-98" value="3rd Party&lt;div&gt;Integration&lt;/div&gt;" style="shadow=0;html=1;strokeColor=none;fillColor=#FFFFFF;labelPosition=center;verticalLabelPosition=top;verticalAlign=bottom;shape=mxgraph.office.communications.3rd_party_integration;rounded=0;fontSize=10;fontColor=#FFFFFF;align=center;" parent="1" vertex="1">
          <mxGeometry x="854" y="856" width="54" height="55" as="geometry" />
        </mxCell>
        <mxCell id="23046e2b9bb16c14-99" value="+" style="text;html=1;strokeColor=none;fillColor=none;align=center;verticalAlign=middle;whiteSpace=wrap;rounded=1;shadow=0;fontSize=30;fontColor=#FFFFFF;fontStyle=1" parent="1" vertex="1">
          <mxGeometry x="814" y="866" width="40" height="35" as="geometry" />
        </mxCell>
        <mxCell id="23046e2b9bb16c14-100" value="+" style="text;html=1;strokeColor=none;fillColor=none;align=center;verticalAlign=middle;whiteSpace=wrap;rounded=1;shadow=0;fontSize=30;fontColor=#FFFFFF;fontStyle=1" parent="1" vertex="1">
          <mxGeometry x="908" y="866" width="40" height="35" as="geometry" />
        </mxCell>
        <mxCell id="23046e2b9bb16c14-101" value="Data Migration&lt;div&gt;Wizard&lt;/div&gt;" style="shadow=0;html=1;strokeColor=none;shape=mxgraph.mscae.intune.data_migration_wizard;fillColor=#FFFFFF;rounded=0;fontSize=10;fontColor=#FFFFFF;align=center;verticalAlign=bottom;labelPosition=center;verticalLabelPosition=top;" parent="1" vertex="1">
          <mxGeometry x="948" y="859" width="50" height="48" as="geometry" />
        </mxCell>
        <mxCell id="23046e2b9bb16c14-102" value="VM Feature" style="shadow=0;html=1;strokeColor=none;fillColor=#FFFFFF;labelPosition=center;verticalLabelPosition=top;verticalAlign=bottom;shape=mxgraph.azure.virtual_machine_feature;rounded=0;fontSize=10;fontColor=#FFFFFF;align=center;" parent="1" vertex="1">
          <mxGeometry x="1086" y="861" width="50" height="45" as="geometry" />
        </mxCell>
        <mxCell id="23046e2b9bb16c14-103" value="" style="line;strokeWidth=2;direction=south;html=1;rounded=0;shadow=0;fillColor=none;fontSize=30;fontColor=#FFFFFF;align=center;strokeColor=#FFFFFF;" parent="1" vertex="1">
          <mxGeometry x="366" y="820" width="10" height="102" as="geometry" />
        </mxCell>
        <mxCell id="23046e2b9bb16c14-104" value="" style="line;strokeWidth=2;direction=south;html=1;rounded=0;shadow=0;fillColor=none;fontSize=30;fontColor=#FFFFFF;align=center;strokeColor=#FFFFFF;" parent="1" vertex="1">
          <mxGeometry x="666" y="820" width="10" height="102" as="geometry" />
        </mxCell>
        <mxCell id="23046e2b9bb16c14-105" value="" style="line;strokeWidth=2;direction=south;html=1;rounded=0;shadow=0;fillColor=none;fontSize=30;fontColor=#FFFFFF;align=center;strokeColor=#FFFFFF;" parent="1" vertex="1">
          <mxGeometry x="1066" y="820" width="10" height="102" as="geometry" />
        </mxCell>
        <mxCell id="23046e2b9bb16c14-106" value="+" style="text;html=1;strokeColor=none;fillColor=none;align=center;verticalAlign=middle;whiteSpace=wrap;rounded=1;shadow=0;fontSize=30;fontColor=#FFFFFF;fontStyle=1" parent="1" vertex="1">
          <mxGeometry x="1136" y="866" width="40" height="35" as="geometry" />
        </mxCell>
        <mxCell id="23046e2b9bb16c14-107" value="Azure&lt;div&gt;Website&lt;/div&gt;" style="verticalLabelPosition=top;html=1;verticalAlign=bottom;strokeColor=none;fillColor=#FFFFFF;shape=mxgraph.azure.azure_website;rounded=0;shadow=0;fontSize=10;fontColor=#FFFFFF;align=center;labelPosition=center;" parent="1" vertex="1">
          <mxGeometry x="1176" y="858" width="50" height="50" as="geometry" />
        </mxCell>
        <mxCell id="23046e2b9bb16c14-108" value="+" style="text;html=1;strokeColor=none;fillColor=none;align=center;verticalAlign=middle;whiteSpace=wrap;rounded=1;shadow=0;fontSize=30;fontColor=#FFFFFF;fontStyle=1" parent="1" vertex="1">
          <mxGeometry x="1226" y="866" width="40" height="35" as="geometry" />
        </mxCell>
        <mxCell id="23046e2b9bb16c14-109" value="MySQL&lt;div&gt;Database&lt;/div&gt;" style="verticalLabelPosition=top;html=1;verticalAlign=bottom;strokeColor=none;fillColor=#FFFFFF;shape=mxgraph.azure.mysql_database;rounded=0;shadow=0;fontSize=10;fontColor=#FFFFFF;align=center;labelPosition=center;" parent="1" vertex="1">
          <mxGeometry x="1266" y="859" width="37.5" height="50" as="geometry" />
        </mxCell>
        <mxCell id="23046e2b9bb16c14-110" value="+" style="text;html=1;strokeColor=none;fillColor=none;align=center;verticalAlign=middle;whiteSpace=wrap;rounded=1;shadow=0;fontSize=30;fontColor=#FFFFFF;fontStyle=1" parent="1" vertex="1">
          <mxGeometry x="1304" y="866" width="40" height="35" as="geometry" />
        </mxCell>
        <mxCell id="23046e2b9bb16c14-111" value="Azure&lt;div&gt;Storage&lt;/div&gt;" style="shadow=0;html=1;strokeColor=none;labelPosition=center;verticalLabelPosition=top;verticalAlign=bottom;shape=mxgraph.mscae.cloud.azure_storage;fillColor=#FFFFFF;rounded=0;fontSize=10;fontColor=#FFFFFF;align=center;" parent="1" vertex="1">
          <mxGeometry x="1344" y="862" width="50" height="43" as="geometry" />
        </mxCell>
        <mxCell id="23046e2b9bb16c14-113" value="Title" style="text;strokeColor=none;fillColor=none;html=1;fontSize=24;fontStyle=1;verticalAlign=middle;align=center;rounded=0;shadow=0;fontColor=#FFFFFF;" parent="1" vertex="1">
          <mxGeometry x="120" y="40" width="1510" height="40" as="geometry" />
        </mxCell>
        <mxCell id="23046e2b9bb16c14-114" value="Subtitle" style="text;html=1;strokeColor=none;fillColor=none;align=center;verticalAlign=middle;whiteSpace=wrap;rounded=0;shadow=0;fontSize=10;fontColor=#009BFF;" parent="1" vertex="1">
          <mxGeometry x="114" y="90" width="1526" height="20" as="geometry" />
        </mxCell>
        <mxCell id="23046e2b9bb16c14-115" value="&lt;h1&gt;Heading&lt;/h1&gt;&lt;p&gt;Lorem ipsum dolor sit amet, consectetur adipisicing elit, sed do eiusmod tempor incididunt ut labore et dolore magna aliqua.&lt;/p&gt;" style="text;html=1;strokeColor=none;fillColor=none;spacing=5;spacingTop=-20;whiteSpace=wrap;overflow=hidden;rounded=0;shadow=0;fontSize=10;fontColor=#FFFFFF;align=left;" parent="1" vertex="1">
          <mxGeometry x="323" y="952" width="1041" height="70" as="geometry" />
        </mxCell>
        <mxCell id="23046e2b9bb16c14-118" style="edgeStyle=orthogonalEdgeStyle;rounded=0;elbow=vertical;html=1;startArrow=none;startFill=0;startSize=10;endArrow=none;endFill=0;endSize=10;strokeColor=#FFFFFF;strokeWidth=3;fontSize=20;fontColor=#FFFFFF;entryX=-0.009;entryY=0.502;entryPerimeter=0;" parent="1" source="23046e2b9bb16c14-68" target="23046e2b9bb16c14-66" edge="1">
          <mxGeometry relative="1" as="geometry">
            <mxPoint x="1346.3333333333333" y="566.6666666666666" as="targetPoint" />
            <mxPoint x="1371" y="658" as="sourcePoint" />
            <Array as="points">
              <mxPoint x="1326" y="673" />
              <mxPoint x="1326" y="475" />
            </Array>
          </mxGeometry>
        </mxCell>
      </root>
    </mxGraphModel>
  </diagram>
  <diagram id="-4q-4fNdJIy42vSRXOLT" name="Page-2">
    <mxGraphModel dx="1434" dy="756" grid="1" gridSize="10" guides="1" tooltips="1" connect="1" arrows="1" fold="1" page="1" pageScale="1" pageWidth="827" pageHeight="1169" math="0" shadow="0">
      <root>
        <mxCell id="0" />
        <mxCell id="1" parent="0" />
        <mxCell id="H4fzVMG0sjHqZXUunfQU-6" value="" style="strokeWidth=2;html=1;shape=mxgraph.flowchart.direct_data;whiteSpace=wrap;" vertex="1" parent="1">
          <mxGeometry x="677" y="59" width="100" height="40" as="geometry" />
        </mxCell>
        <mxCell id="H4fzVMG0sjHqZXUunfQU-7" value="ShelfScanRequest" style="endArrow=classic;html=1;rounded=0;exitX=0;exitY=0.5;exitDx=0;exitDy=0;exitPerimeter=0;" edge="1" parent="1" source="H4fzVMG0sjHqZXUunfQU-6">
          <mxGeometry x="-0.0024" width="50" height="50" relative="1" as="geometry">
            <mxPoint x="660" y="83" as="sourcePoint" />
            <mxPoint x="450" y="80" as="targetPoint" />
            <Array as="points" />
            <mxPoint as="offset" />
          </mxGeometry>
        </mxCell>
        <mxCell id="H4fzVMG0sjHqZXUunfQU-8" value="Camera" style="shape=image;verticalLabelPosition=bottom;labelBackgroundColor=#ffffff;verticalAlign=top;aspect=fixed;imageAspect=0;image=data:image/svg+xml,PHN2ZyB4bWxuczpjYz0iaHR0cDovL2NyZWF0aXZlY29tbW9ucy5vcmcvbnMjIiB4bWxuczpkYz0iaHR0cDovL3B1cmwub3JnL2RjL2VsZW1lbnRzLzEuMS8iIHhtbG5zOmlua3NjYXBlPSJodHRwOi8vd3d3Lmlua3NjYXBlLm9yZy9uYW1lc3BhY2VzL2lua3NjYXBlIiB4bWxuczpyZGY9Imh0dHA6Ly93d3cudzMub3JnLzE5OTkvMDIvMjItcmRmLXN5bnRheC1ucyMiIHhtbG5zOnNvZGlwb2RpPSJodHRwOi8vc29kaXBvZGkuc291cmNlZm9yZ2UubmV0L0RURC9zb2RpcG9kaS0wLmR0ZCIgeG1sbnM6c3ZnPSJodHRwOi8vd3d3LnczLm9yZy8yMDAwL3N2ZyIgeG1sbnM9Imh0dHA6Ly93d3cudzMub3JnLzIwMDAvc3ZnIiB4bWxuczp4bGluaz0iaHR0cDovL3d3dy53My5vcmcvMTk5OS94bGluayIgdmVyc2lvbj0iMS4xIiBpZD0ic3ZnMTEzMjQyIiBpbmtzY2FwZTp2ZXJzaW9uPSIwLjkyLjMgKDI0MDU1NDYsIDIwMTgtMDMtMTEpIiBzb2RpcG9kaTpkb2NuYW1lPSJ2aXNpb25fMS5zdmciIHg9IjBweCIgeT0iMHB4IiB2aWV3Qm94PSIwIDAgMjcuMzUgMTguNzUiIHN0eWxlPSJlbmFibGUtYmFja2dyb3VuZDpuZXcgMCAwIDI3LjM1IDE4Ljc1OyIgeG1sOnNwYWNlPSJwcmVzZXJ2ZSI+JiN4YTs8c29kaXBvZGk6bmFtZWR2aWV3IGJvcmRlcmNvbG9yPSIjNjY2NjY2IiBib3JkZXJvcGFjaXR5PSIxIiBmaXQtbWFyZ2luLWJvdHRvbT0iMCIgZml0LW1hcmdpbi1sZWZ0PSIwIiBmaXQtbWFyZ2luLXJpZ2h0PSIwIiBmaXQtbWFyZ2luLXRvcD0iMCIgZ3JpZHRvbGVyYW5jZT0iMTAiIGd1aWRldG9sZXJhbmNlPSIxMCIgaWQ9Im5hbWVkdmlldzExMzI0NCIgaW5rc2NhcGU6Y3VycmVudC1sYXllcj0ic3ZnMTEzMjQyIiBpbmtzY2FwZTpjeD0iMTguMjM0OTkyIiBpbmtzY2FwZTpjeT0iMTIuNDk5OTk1IiBpbmtzY2FwZTpwYWdlb3BhY2l0eT0iMCIgaW5rc2NhcGU6cGFnZXNoYWRvdz0iMiIgaW5rc2NhcGU6d2luZG93LWhlaWdodD0iMTAxNyIgaW5rc2NhcGU6d2luZG93LW1heGltaXplZD0iMSIgaW5rc2NhcGU6d2luZG93LXdpZHRoPSIxOTIwIiBpbmtzY2FwZTp3aW5kb3cteD0iLTgiIGlua3NjYXBlOndpbmRvdy15PSItOCIgaW5rc2NhcGU6em9vbT0iMzIuMTExMTExIiBvYmplY3R0b2xlcmFuY2U9IjEwIiBwYWdlY29sb3I9IiNmZmZmZmYiIHNob3dncmlkPSJmYWxzZSI+JiN4YTsJPC9zb2RpcG9kaTpuYW1lZHZpZXc+JiN4YTs8ZyBpZD0iZzExMzI0MCIgdHJhbnNmb3JtPSJ0cmFuc2xhdGUoLTAuNzUsLTAuNzUpIj4mI3hhOwk8dGl0bGUgaWQ9InRpdGxlMTEzMjE1Ij5QYWdlLTE8L3RpdGxlPiYjeGE7CTxnIGlkPSJncm91cDU5NTktMSIgdHJhbnNmb3JtPSJ0cmFuc2xhdGUoMC43NSwtMC43NSkiPiYjeGE7CQk8dGl0bGUgaWQ9InRpdGxlMTEzMjE3Ij5WaXNpb24gIzE8L3RpdGxlPiYjeGE7CQk8ZyBpZD0ic2hhcGU1OTYwLTIiPiYjeGE7CQkJPHRpdGxlIGlkPSJ0aXRsZTExMzIxOSI+cGF0aDgwOTM8L3RpdGxlPiYjeGE7CQkJPHBhdGggaWQ9InBhdGgxMTMyMjEiIGlua3NjYXBlOmNvbm5lY3Rvci1jdXJ2YXR1cmU9IjAiIHN0eWxlPSJmaWxsOiM1NTZBOEE7IiBkPSJNMjcuMzUsMTAuNWMwLDIuODItNi4xMyw5Ljc1LTEzLjY4LDkuNzUgICAgIFMwLDEzLjMzLDAsMTAuNWMwLTMuMDksNi4xMy05LDEzLjY4LTlTMjcuMzUsNy42OSwyNy4zNSwxMC41eiIvPiYjeGE7CQk8L2c+JiN4YTsJCTxnIGlkPSJzaGFwZTU5NjEtNCIgdHJhbnNmb3JtPSJ0cmFuc2xhdGUoNy4yLC0yLjg4KSI+JiN4YTsJCQk8dGl0bGUgaWQ9InRpdGxlMTEzMjI0Ij5jaXJjbGU4MDk1PC90aXRsZT4mI3hhOwkJCTxjaXJjbGUgaWQ9ImVsbGlwc2UxMTMyMjYiIHN0eWxlPSJmaWxsOiNGRkZGRkY7IiBjeD0iNi40OCIgY3k9IjEzLjc3IiByPSI2LjQ4Ii8+JiN4YTsJCTwvZz4mI3hhOwkJPGcgaWQ9InNoYXBlNTk2Mi02IiB0cmFuc2Zvcm09InRyYW5zbGF0ZSg5LjM2LC01LjA0KSI+JiN4YTsJCQk8dGl0bGUgaWQ9InRpdGxlMTEzMjI5Ij5jaXJjbGU4MDk3PC90aXRsZT4mI3hhOwkJCTxjaXJjbGUgaWQ9ImVsbGlwc2UxMTMyMzEiIHN0eWxlPSJmaWxsOiMyQkM3RjQ7IiBjeD0iNC4zMiIgY3k9IjE1LjkzIiByPSI0LjMyIi8+JiN4YTsJCTwvZz4mI3hhOwkJPGcgaWQ9InNoYXBlNTk2My04IiB0cmFuc2Zvcm09InRyYW5zbGF0ZSgxMi45NiwtOS4zNikiPiYjeGE7CQkJPHRpdGxlIGlkPSJ0aXRsZTExMzIzNCI+Y2lyY2xlODA5OTwvdGl0bGU+JiN4YTsJCQk8Y2lyY2xlIGlkPSJlbGxpcHNlMTEzMjM2IiBzdHlsZT0iZmlsbDojRkZGRkZGOyIgY3g9IjIuMTYiIGN5PSIxOC4wOSIgcj0iMi4xNiIvPiYjeGE7CQk8L2c+JiN4YTsJPC9nPiYjeGE7PC9nPiYjeGE7PC9zdmc+;" vertex="1" parent="1">
          <mxGeometry x="70" y="170" width="27" height="19" as="geometry" />
        </mxCell>
        <mxCell id="H4fzVMG0sjHqZXUunfQU-9" value="" style="endArrow=classic;html=1;rounded=0;exitX=0;exitY=0.75;exitDx=0;exitDy=0;entryX=1;entryY=0.25;entryDx=0;entryDy=0;" edge="1" parent="1" source="H4fzVMG0sjHqZXUunfQU-14" target="H4fzVMG0sjHqZXUunfQU-8">
          <mxGeometry width="50" height="50" relative="1" as="geometry">
            <mxPoint x="324.96000000000004" y="69.98000000000002" as="sourcePoint" />
            <mxPoint x="440" y="260" as="targetPoint" />
          </mxGeometry>
        </mxCell>
        <mxCell id="H4fzVMG0sjHqZXUunfQU-10" value="bookshelf" style="shape=image;html=1;verticalAlign=top;verticalLabelPosition=bottom;labelBackgroundColor=#ffffff;imageAspect=0;aspect=fixed;image=https://cdn0.iconfinder.com/data/icons/travel-and-leisure/512/2-128.png" vertex="1" parent="1">
          <mxGeometry x="220" y="280" width="70" height="70" as="geometry" />
        </mxCell>
        <mxCell id="H4fzVMG0sjHqZXUunfQU-11" value="" style="endArrow=classic;html=1;rounded=0;" edge="1" parent="1" source="H4fzVMG0sjHqZXUunfQU-8" target="H4fzVMG0sjHqZXUunfQU-10">
          <mxGeometry width="50" height="50" relative="1" as="geometry">
            <mxPoint x="335" y="80" as="sourcePoint" />
            <mxPoint x="107" y="185" as="targetPoint" />
          </mxGeometry>
        </mxCell>
        <mxCell id="H4fzVMG0sjHqZXUunfQU-12" value="pictures" style="shape=image;html=1;verticalAlign=top;verticalLabelPosition=bottom;labelBackgroundColor=#ffffff;imageAspect=0;aspect=fixed;image=https://cdn3.iconfinder.com/data/icons/document-icons-2/30/647703-image-128.png" vertex="1" parent="1">
          <mxGeometry x="230" y="180" width="50" height="50" as="geometry" />
        </mxCell>
        <mxCell id="H4fzVMG0sjHqZXUunfQU-13" value="" style="endArrow=classic;html=1;rounded=0;entryX=0;entryY=0.5;entryDx=0;entryDy=0;exitX=1;exitY=0.75;exitDx=0;exitDy=0;" edge="1" parent="1" source="H4fzVMG0sjHqZXUunfQU-8" target="H4fzVMG0sjHqZXUunfQU-12">
          <mxGeometry width="50" height="50" relative="1" as="geometry">
            <mxPoint x="100" y="199" as="sourcePoint" />
            <mxPoint x="190" y="330" as="targetPoint" />
          </mxGeometry>
        </mxCell>
        <mxCell id="H4fzVMG0sjHqZXUunfQU-14" value="Inventory Program" style="shape=image;verticalLabelPosition=bottom;labelBackgroundColor=#ffffff;verticalAlign=top;aspect=fixed;imageAspect=0;image=data:image/svg+xml,PHN2ZyB4bWxuczpkYz0iaHR0cDovL3B1cmwub3JnL2RjL2VsZW1lbnRzLzEuMS8iIHhtbG5zOmNjPSJodHRwOi8vY3JlYXRpdmVjb21tb25zLm9yZy9ucyMiIHhtbG5zOnJkZj0iaHR0cDovL3d3dy53My5vcmcvMTk5OS8wMi8yMi1yZGYtc3ludGF4LW5zIyIgeG1sbnM6c3ZnPSJodHRwOi8vd3d3LnczLm9yZy8yMDAwL3N2ZyIgeG1sbnM9Imh0dHA6Ly93d3cudzMub3JnLzIwMDAvc3ZnIiB4bWxuczp4bGluaz0iaHR0cDovL3d3dy53My5vcmcvMTk5OS94bGluayIgeG1sbnM6c29kaXBvZGk9Imh0dHA6Ly9zb2RpcG9kaS5zb3VyY2Vmb3JnZS5uZXQvRFREL3NvZGlwb2RpLTAuZHRkIiB4bWxuczppbmtzY2FwZT0iaHR0cDovL3d3dy5pbmtzY2FwZS5vcmcvbmFtZXNwYWNlcy9pbmtzY2FwZSIgdmVyc2lvbj0iMS4xIiBpZD0iTGF5ZXJfMSIgeD0iMHB4IiB5PSIwcHgiIHZpZXdCb3g9IjAgMCA1MS4zODk5OTkgMzguNDg3NjQ4IiB4bWw6c3BhY2U9InByZXNlcnZlIiBzb2RpcG9kaTpkb2NuYW1lPSJzYXBfYXBwaWNhdGlvbl9ydW50aW1lLnN2ZyIgd2lkdGg9IjUxLjM4OTk5OSIgaGVpZ2h0PSIzOC40ODc2NDgiIGlua3NjYXBlOnZlcnNpb249IjAuOTIuMyAoMjQwNTU0NiwgMjAxOC0wMy0xMSkiPjxtZXRhZGF0YSBpZD0ibWV0YWRhdGE1MjM1OCI+PHJkZjpSREY+PGNjOldvcmsgcmRmOmFib3V0PSIiPjxkYzpmb3JtYXQ+aW1hZ2Uvc3ZnK3htbDwvZGM6Zm9ybWF0PjxkYzp0eXBlIHJkZjpyZXNvdXJjZT0iaHR0cDovL3B1cmwub3JnL2RjL2RjbWl0eXBlL1N0aWxsSW1hZ2UiLz48ZGM6dGl0bGUvPjwvY2M6V29yaz48L3JkZjpSREY+PC9tZXRhZGF0YT48ZGVmcyBpZD0iZGVmczUyMzU2Ii8+PHNvZGlwb2RpOm5hbWVkdmlldyBwYWdlY29sb3I9IiNmZmZmZmYiIGJvcmRlcmNvbG9yPSIjNjY2NjY2IiBib3JkZXJvcGFjaXR5PSIxIiBvYmplY3R0b2xlcmFuY2U9IjEwIiBncmlkdG9sZXJhbmNlPSIxMCIgZ3VpZGV0b2xlcmFuY2U9IjEwIiBpbmtzY2FwZTpwYWdlb3BhY2l0eT0iMCIgaW5rc2NhcGU6cGFnZXNoYWRvdz0iMiIgaW5rc2NhcGU6d2luZG93LXdpZHRoPSIxOTIwIiBpbmtzY2FwZTp3aW5kb3ctaGVpZ2h0PSIxMDE3IiBpZD0ibmFtZWR2aWV3NTIzNTQiIHNob3dncmlkPSJmYWxzZSIgZml0LW1hcmdpbi10b3A9IjAiIGZpdC1tYXJnaW4tbGVmdD0iMCIgZml0LW1hcmdpbi1yaWdodD0iMCIgZml0LW1hcmdpbi1ib3R0b209IjAiIGlua3NjYXBlOnpvb209IjEuMDMwMzAzIiBpbmtzY2FwZTpjeD0iLTMwLjg5NSIgaW5rc2NhcGU6Y3k9Ii0xODYuNjQyMzUiIGlua3NjYXBlOndpbmRvdy14PSItOCIgaW5rc2NhcGU6d2luZG93LXk9Ii04IiBpbmtzY2FwZTp3aW5kb3ctbWF4aW1pemVkPSIxIiBpbmtzY2FwZTpjdXJyZW50LWxheWVyPSJMYXllcl8xIi8+JiN4YTsmI3hhOzxnIGlkPSJnNTIzNTEiIHRyYW5zZm9ybT0idHJhbnNsYXRlKC0zMjguMjcsLTE5NS42MikiPiYjeGE7CTxkZWZzIGlkPSJkZWZzNTIzMjgiPiYjeGE7CQk8cmVjdCBpZD0iU1ZHSURfM18iIHg9IjMyOC4yNjk5OSIgeT0iMTk1LjYyIiB3aWR0aD0iNTMuODMwMDAyIiBoZWlnaHQ9IjM5LjY2Ii8+JiN4YTsJPC9kZWZzPiYjeGE7CTxjbGlwUGF0aCBpZD0iU1ZHSURfNF8iPiYjeGE7CQk8dXNlIHhsaW5rOmhyZWY9IiNTVkdJRF8zXyIgc3R5bGU9Im92ZXJmbG93OnZpc2libGUiIGlkPSJ1c2U1MjMzMCIgeD0iMCIgeT0iMCIgd2lkdGg9IjEwMCUiIGhlaWdodD0iMTAwJSIvPiYjeGE7CTwvY2xpcFBhdGg+JiN4YTsJPGcgY2xpcC1wYXRoPSJ1cmwoI1NWR0lEXzRfKSIgaWQ9Imc1MjM0OSI+JiN4YTsJCTxkZWZzIGlkPSJkZWZzNTIzMzQiPiYjeGE7CQkJPHJlY3QgaWQ9IlNWR0lEXzVfIiB4PSIzMjguMjY5OTkiIHk9IjE5NS42MiIgd2lkdGg9IjUzLjgzMDAwMiIgaGVpZ2h0PSIzOS42NiIvPiYjeGE7CQk8L2RlZnM+JiN4YTsJCTxjbGlwUGF0aCBpZD0iU1ZHSURfNl8iPiYjeGE7CQkJPHVzZSB4bGluazpocmVmPSIjU1ZHSURfNV8iIHN0eWxlPSJvdmVyZmxvdzp2aXNpYmxlIiBpZD0idXNlNTIzMzYiIHg9IjAiIHk9IjAiIHdpZHRoPSIxMDAlIiBoZWlnaHQ9IjEwMCUiLz4mI3hhOwkJPC9jbGlwUGF0aD4mI3hhOwkJPHBhdGggc3R5bGU9ImZpbGw6IzAwOTJkMSIgZD0ibSAzNDUuNTksMjEwLjA2IGggLTIuMSBjIC0xLjMyLC0wLjA2IC0yLjQ2LDEuMDggLTIuNCwyLjQgdiA0Ljc5IGMgMCwwLjY2IDAuMjQsMS4yNiAwLjY2LDEuNzQgMC40OCwwLjQ4IDEuMDgsMC43MiAxLjc0LDAuNzIgaCAyLjEgbCAwLjk2LDIuMTYgLTEuNTYsMS41IGMgLTAuOSwwLjk2IC0wLjksMi40NiAwLDMuNDIgbCAzLjQ4LDMuNDEgYyAwLjQ4LDAuNDggMS4wOCwwLjcyIDEuNjgsMC43MiAwLjY2LDAgMS4yNiwtMC4yNCAxLjc0LC0wLjcyIGwgMS41LC0xLjU2IDIuMTYsMC45NiB2IDIuMSBjIDAsMC42NiAwLjI0LDEuMjYgMC43MiwxLjY4IDAuNDIsMC40OCAxLjAyLDAuNzggMS42OCwwLjcyIGggNC44NSBjIDAuNiwwLjA2IDEuMjYsLTAuMjQgMS42OCwtMC42NiAwLjQ4LC0wLjQ4IDAuNzIsLTEuMDggMC43MiwtMS43NCB2IC0yLjEgbCAyLjE2LC0wLjk2IDEuNSwxLjU2IGMgMC40OCwwLjQ4IDEuMDgsMC43MiAxLjc0LDAuNzIgMC42LDAgMS4yLC0wLjI0IDEuNjgsLTAuNzIgbCAzLjQyLC0zLjQ3IGMgMC45LC0wLjk2IDAuOSwtMi40IDAsLTMuMzYgbCAtMS41LC0xLjUgMC45NiwtMi4xNiBoIDIuMSBjIDAuNjYsMCAxLjI2LC0wLjI0IDEuNzQsLTAuNzIgMC40MiwtMC40OCAwLjY2LC0xLjA4IDAuNjYsLTEuNzQgdiAtNC43OSBjIDAsLTEuMzIgLTEuMDgsLTIuNDYgLTIuNDYsLTIuNCBoIC0yLjA0IGwgLTAuOSwtMi4xNiAxLjUsLTEuNTYgYyAwLjQyLC0wLjQyIDAuNjYsLTEuMDggMC42NiwtMS42OCAwLC0wLjY2IC0wLjI0LC0xLjI2IC0wLjY2LC0xLjY4IGwgLTMuNTQsLTMuNDcgYyAtMC40MiwtMC40MiAtMS4wMiwtMC42NiAtMS42MiwtMC42NiAtMC42NiwwIC0xLjI2LDAuMjQgLTEuNzQsMC42NiBsIC0xLjUsMS41IC0yLjE2LC0wLjkgdiAtMi4xIGMgMCwtMS4zMiAtMS4wOCwtMi40NiAtMi40NiwtMi40IGggLTQuNzkgYyAtMS4zMiwtMC4wNiAtMi40NiwxLjA4IC0yLjQsMi40IHYgMi4xIGwgLTIuMjIsMC45IC0xLjUsLTEuNSBjIC0wLjQyLC0wLjQyIC0xLjA4LC0wLjY2IC0xLjY4LC0wLjY2IC0wLjY2LDAgLTEuMjYsMC4yNCAtMS42OCwwLjY2IGwgLTMuNDgsMy40NyBjIC0wLjQyLDAuNDIgLTAuNjYsMS4wMiAtMC42NiwxLjY4IDAsMC42IDAuMjQsMS4yNiAwLjY2LDEuNzQgbCAxLjU2LDEuNSB6IG0gMTYuMzYsLTExLjIgdiAzLjc3IGwgNi4xMSwyLjIyIDIuNDYsLTIuNDYgMi4zNCwyLjI4IC0yLjQ2LDIuNTIgMi40Niw2LjA1IGggMy41NCB2IDMuMjQgaCAtMy41NCBsIC0yLjQ2LDYuMTEgMi40NiwyLjQ2IC0yLjI4LDIuMjggLTIuNjQsLTIuNyAtNS45OSwyLjc2IHYgMy41MyBoIC0zLjE4IHYgLTMuNTMgbCAtNS45OSwtMi43NiAtMi42NCwyLjc2IC0yLjI4LC0yLjM0IDIuNDYsLTIuNDYgLTIuMjIsLTYuMTEgaCAtMy43OCB2IC0zLjI0IGggMy43OCBsIDIuMjIsLTYuMTEgLTIuNDYsLTIuNDYgMi4yOCwtMi4yOCAyLjUyLDIuNDYgNi4xMSwtMi4yMiB2IC0zLjc3IHoiIGNsaXAtcGF0aD0idXJsKCNTVkdJRF82XykiIGlkPSJwYXRoNTIzMzkiIGlua3NjYXBlOmNvbm5lY3Rvci1jdXJ2YXR1cmU9IjAiLz4mI3hhOwkJPHBhdGggc3R5bGU9ImZpbGw6IzVhN2E5NCIgZD0ibSAzMzYuMywyMTQuOTEgaCAtNi40MSBjIC0yLjE2LDAgLTIuMTYsLTMuMjQgMCwtMy4yNCBoIDYuNDEgYyAyLjE2LDAuMDEgMi4xNiwzLjI0IDAsMy4yNCB6IiBjbGlwLXBhdGg9InVybCgjU1ZHSURfNl8pIiBpZD0icGF0aDUyMzQxIiBpbmtzY2FwZTpjb25uZWN0b3ItY3VydmF0dXJlPSIwIi8+JiN4YTsJCTxwYXRoIHN0eWxlPSJmaWxsOiM1YTdhOTQiIGQ9Im0gMzM5LjQ4LDIwNS4yNyBoIC02LjQxIGMgLTIuMSwwIC0yLjEsLTMuMTggMCwtMy4xOCBoIDYuNDEgYyAyLjE1LDAgMi4xNSwzLjE4IDAsMy4xOCB6IiBjbGlwLXBhdGg9InVybCgjU1ZHSURfNl8pIiBpZD0icGF0aDUyMzQzIiBpbmtzY2FwZTpjb25uZWN0b3ItY3VydmF0dXJlPSIwIi8+JiN4YTsJCTxwYXRoIHN0eWxlPSJmaWxsOiM1YTdhOTQiIGQ9Im0gMzM5LjQ4LDIyNC41NiBoIC0zLjI0IGMgLTIuMTYsMCAtMi4xNiwtMy4yNCAwLC0zLjI0IGggMy4yNCBjIDIuMTUsMCAyLjE1LDMuMjQgMCwzLjI0IHoiIGNsaXAtcGF0aD0idXJsKCNTVkdJRF82XykiIGlkPSJwYXRoNTIzNDUiIGlua3NjYXBlOmNvbm5lY3Rvci1jdXJ2YXR1cmU9IjAiLz4mI3hhOwkJPHBhdGggc3R5bGU9ImZpbGw6IzAwOTJkMSIgZD0ibSAzNTYuNDQsMjIxLjI2IGMgLTAuMywwIC0wLjU0LC0wLjA2IC0wLjcyLC0wLjI0IC0wLjI0LC0wLjE4IC0wLjMsLTAuNDggLTAuMywtMC43MiB2IC0xMC43OCBjIDAsLTAuMyAwLjA2LC0wLjU0IDAuMywtMC43OCAwLjE4LC0wLjE4IDAuNDIsLTAuMyAwLjcyLC0wLjMgMC4xOCwwIDAuMzYsMC4wNiAwLjU0LDAuMTIgbCAxMC43Myw1LjU3IGMgMC43MiwwLjQyIDAuNzIsMS40NCAwLDEuOCBsIC0xMC43Myw1LjIxIGMgLTAuMTgsMC4wNiAtMC4zNiwwLjEyIC0wLjU0LDAuMTIgeiIgY2xpcC1wYXRoPSJ1cmwoI1NWR0lEXzZfKSIgaWQ9InBhdGg1MjM0NyIgaW5rc2NhcGU6Y29ubmVjdG9yLWN1cnZhdHVyZT0iMCIvPiYjeGE7CTwvZz4mI3hhOzwvZz4mI3hhOzwvc3ZnPg==;" vertex="1" parent="1">
          <mxGeometry x="370" y="61" width="51" height="38" as="geometry" />
        </mxCell>
        <mxCell id="H4fzVMG0sjHqZXUunfQU-15" value="" style="endArrow=classic;html=1;rounded=0;entryX=1;entryY=0.25;entryDx=0;entryDy=0;exitX=0.267;exitY=1.083;exitDx=0;exitDy=0;exitPerimeter=0;" edge="1" parent="1" target="H4fzVMG0sjHqZXUunfQU-12">
          <mxGeometry width="50" height="50" relative="1" as="geometry">
            <mxPoint x="362.03999999999996" y="114.98000000000002" as="sourcePoint" />
            <mxPoint x="240" y="215" as="targetPoint" />
          </mxGeometry>
        </mxCell>
        <mxCell id="H4fzVMG0sjHqZXUunfQU-31" value="parse" style="edgeLabel;html=1;align=center;verticalAlign=middle;resizable=0;points=[];" vertex="1" connectable="0" parent="H4fzVMG0sjHqZXUunfQU-15">
          <mxGeometry x="-0.2113" y="3" relative="1" as="geometry">
            <mxPoint x="1" as="offset" />
          </mxGeometry>
        </mxCell>
        <mxCell id="H4fzVMG0sjHqZXUunfQU-16" value="" style="strokeWidth=2;html=1;shape=mxgraph.flowchart.direct_data;whiteSpace=wrap;" vertex="1" parent="1">
          <mxGeometry x="680" y="149.5" width="100" height="40.5" as="geometry" />
        </mxCell>
        <mxCell id="H4fzVMG0sjHqZXUunfQU-18" value="InventoryUpdateRequest" style="endArrow=classic;html=1;rounded=0;entryX=0;entryY=0.5;entryDx=0;entryDy=0;entryPerimeter=0;" edge="1" parent="1" source="H4fzVMG0sjHqZXUunfQU-14" target="H4fzVMG0sjHqZXUunfQU-16">
          <mxGeometry width="50" height="50" relative="1" as="geometry">
            <mxPoint x="446.03999999999996" y="99.98000000000002" as="sourcePoint" />
            <mxPoint x="460" y="90" as="targetPoint" />
            <Array as="points">
              <mxPoint x="446" y="170" />
            </Array>
          </mxGeometry>
        </mxCell>
        <mxCell id="H4fzVMG0sjHqZXUunfQU-20" value="Local Database" style="image;html=1;image=img/lib/clip_art/computers/Database_128x128.png" vertex="1" parent="1">
          <mxGeometry x="690" y="530" width="80" height="80" as="geometry" />
        </mxCell>
        <mxCell id="H4fzVMG0sjHqZXUunfQU-27" style="edgeStyle=orthogonalEdgeStyle;rounded=0;orthogonalLoop=1;jettySize=auto;html=1;exitX=0.72;exitY=0.99;exitDx=0;exitDy=0;exitPerimeter=0;entryX=0;entryY=0.25;entryDx=0;entryDy=0;" edge="1" parent="1" source="H4fzVMG0sjHqZXUunfQU-25" target="H4fzVMG0sjHqZXUunfQU-20">
          <mxGeometry relative="1" as="geometry">
            <mxPoint x="620" y="550" as="targetPoint" />
          </mxGeometry>
        </mxCell>
        <mxCell id="H4fzVMG0sjHqZXUunfQU-21" value="InventoryUpdate" style="sketch=0;html=1;dashed=0;whitespace=wrap;fillColor=#2875E2;strokeColor=#ffffff;points=[[0.005,0.63,0],[0.1,0.2,0],[0.9,0.2,0],[0.5,0,0],[0.995,0.63,0],[0.72,0.99,0],[0.5,1,0],[0.28,0.99,0]];verticalLabelPosition=bottom;align=center;verticalAlign=top;shape=mxgraph.kubernetes.icon;prIcon=api" vertex="1" parent="1">
          <mxGeometry x="705" y="390" width="50" height="48" as="geometry" />
        </mxCell>
        <mxCell id="H4fzVMG0sjHqZXUunfQU-22" value="" style="endArrow=classic;html=1;rounded=0;exitX=0.5;exitY=1;exitDx=0;exitDy=0;exitPerimeter=0;" edge="1" parent="1" source="H4fzVMG0sjHqZXUunfQU-21" target="H4fzVMG0sjHqZXUunfQU-20">
          <mxGeometry width="50" height="50" relative="1" as="geometry">
            <mxPoint x="372" y="125" as="sourcePoint" />
            <mxPoint x="290" y="203" as="targetPoint" />
          </mxGeometry>
        </mxCell>
        <mxCell id="H4fzVMG0sjHqZXUunfQU-23" value="" style="endArrow=classic;html=1;rounded=0;exitX=0.5;exitY=1;exitDx=0;exitDy=0;exitPerimeter=0;entryX=0.5;entryY=0;entryDx=0;entryDy=0;entryPerimeter=0;" edge="1" parent="1" source="H4fzVMG0sjHqZXUunfQU-16" target="H4fzVMG0sjHqZXUunfQU-21">
          <mxGeometry width="50" height="50" relative="1" as="geometry">
            <mxPoint x="730" y="448" as="sourcePoint" />
            <mxPoint x="720" y="400" as="targetPoint" />
          </mxGeometry>
        </mxCell>
        <mxCell id="H4fzVMG0sjHqZXUunfQU-24" value="Checkout Program" style="shape=image;verticalLabelPosition=bottom;labelBackgroundColor=#ffffff;verticalAlign=top;aspect=fixed;imageAspect=0;image=data:image/svg+xml,PHN2ZyB4bWxuczpkYz0iaHR0cDovL3B1cmwub3JnL2RjL2VsZW1lbnRzLzEuMS8iIHhtbG5zOmNjPSJodHRwOi8vY3JlYXRpdmVjb21tb25zLm9yZy9ucyMiIHhtbG5zOnJkZj0iaHR0cDovL3d3dy53My5vcmcvMTk5OS8wMi8yMi1yZGYtc3ludGF4LW5zIyIgeG1sbnM6c3ZnPSJodHRwOi8vd3d3LnczLm9yZy8yMDAwL3N2ZyIgeG1sbnM9Imh0dHA6Ly93d3cudzMub3JnLzIwMDAvc3ZnIiB4bWxuczp4bGluaz0iaHR0cDovL3d3dy53My5vcmcvMTk5OS94bGluayIgeG1sbnM6c29kaXBvZGk9Imh0dHA6Ly9zb2RpcG9kaS5zb3VyY2Vmb3JnZS5uZXQvRFREL3NvZGlwb2RpLTAuZHRkIiB4bWxuczppbmtzY2FwZT0iaHR0cDovL3d3dy5pbmtzY2FwZS5vcmcvbmFtZXNwYWNlcy9pbmtzY2FwZSIgdmVyc2lvbj0iMS4xIiBpZD0iTGF5ZXJfMSIgeD0iMHB4IiB5PSIwcHgiIHZpZXdCb3g9IjAgMCA1MS4zODk5OTkgMzguNDg3NjQ4IiB4bWw6c3BhY2U9InByZXNlcnZlIiBzb2RpcG9kaTpkb2NuYW1lPSJzYXBfYXBwaWNhdGlvbl9ydW50aW1lLnN2ZyIgd2lkdGg9IjUxLjM4OTk5OSIgaGVpZ2h0PSIzOC40ODc2NDgiIGlua3NjYXBlOnZlcnNpb249IjAuOTIuMyAoMjQwNTU0NiwgMjAxOC0wMy0xMSkiPjxtZXRhZGF0YSBpZD0ibWV0YWRhdGE1MjM1OCI+PHJkZjpSREY+PGNjOldvcmsgcmRmOmFib3V0PSIiPjxkYzpmb3JtYXQ+aW1hZ2Uvc3ZnK3htbDwvZGM6Zm9ybWF0PjxkYzp0eXBlIHJkZjpyZXNvdXJjZT0iaHR0cDovL3B1cmwub3JnL2RjL2RjbWl0eXBlL1N0aWxsSW1hZ2UiLz48ZGM6dGl0bGUvPjwvY2M6V29yaz48L3JkZjpSREY+PC9tZXRhZGF0YT48ZGVmcyBpZD0iZGVmczUyMzU2Ii8+PHNvZGlwb2RpOm5hbWVkdmlldyBwYWdlY29sb3I9IiNmZmZmZmYiIGJvcmRlcmNvbG9yPSIjNjY2NjY2IiBib3JkZXJvcGFjaXR5PSIxIiBvYmplY3R0b2xlcmFuY2U9IjEwIiBncmlkdG9sZXJhbmNlPSIxMCIgZ3VpZGV0b2xlcmFuY2U9IjEwIiBpbmtzY2FwZTpwYWdlb3BhY2l0eT0iMCIgaW5rc2NhcGU6cGFnZXNoYWRvdz0iMiIgaW5rc2NhcGU6d2luZG93LXdpZHRoPSIxOTIwIiBpbmtzY2FwZTp3aW5kb3ctaGVpZ2h0PSIxMDE3IiBpZD0ibmFtZWR2aWV3NTIzNTQiIHNob3dncmlkPSJmYWxzZSIgZml0LW1hcmdpbi10b3A9IjAiIGZpdC1tYXJnaW4tbGVmdD0iMCIgZml0LW1hcmdpbi1yaWdodD0iMCIgZml0LW1hcmdpbi1ib3R0b209IjAiIGlua3NjYXBlOnpvb209IjEuMDMwMzAzIiBpbmtzY2FwZTpjeD0iLTMwLjg5NSIgaW5rc2NhcGU6Y3k9Ii0xODYuNjQyMzUiIGlua3NjYXBlOndpbmRvdy14PSItOCIgaW5rc2NhcGU6d2luZG93LXk9Ii04IiBpbmtzY2FwZTp3aW5kb3ctbWF4aW1pemVkPSIxIiBpbmtzY2FwZTpjdXJyZW50LWxheWVyPSJMYXllcl8xIi8+JiN4YTsmI3hhOzxnIGlkPSJnNTIzNTEiIHRyYW5zZm9ybT0idHJhbnNsYXRlKC0zMjguMjcsLTE5NS42MikiPiYjeGE7CTxkZWZzIGlkPSJkZWZzNTIzMjgiPiYjeGE7CQk8cmVjdCBpZD0iU1ZHSURfM18iIHg9IjMyOC4yNjk5OSIgeT0iMTk1LjYyIiB3aWR0aD0iNTMuODMwMDAyIiBoZWlnaHQ9IjM5LjY2Ii8+JiN4YTsJPC9kZWZzPiYjeGE7CTxjbGlwUGF0aCBpZD0iU1ZHSURfNF8iPiYjeGE7CQk8dXNlIHhsaW5rOmhyZWY9IiNTVkdJRF8zXyIgc3R5bGU9Im92ZXJmbG93OnZpc2libGUiIGlkPSJ1c2U1MjMzMCIgeD0iMCIgeT0iMCIgd2lkdGg9IjEwMCUiIGhlaWdodD0iMTAwJSIvPiYjeGE7CTwvY2xpcFBhdGg+JiN4YTsJPGcgY2xpcC1wYXRoPSJ1cmwoI1NWR0lEXzRfKSIgaWQ9Imc1MjM0OSI+JiN4YTsJCTxkZWZzIGlkPSJkZWZzNTIzMzQiPiYjeGE7CQkJPHJlY3QgaWQ9IlNWR0lEXzVfIiB4PSIzMjguMjY5OTkiIHk9IjE5NS42MiIgd2lkdGg9IjUzLjgzMDAwMiIgaGVpZ2h0PSIzOS42NiIvPiYjeGE7CQk8L2RlZnM+JiN4YTsJCTxjbGlwUGF0aCBpZD0iU1ZHSURfNl8iPiYjeGE7CQkJPHVzZSB4bGluazpocmVmPSIjU1ZHSURfNV8iIHN0eWxlPSJvdmVyZmxvdzp2aXNpYmxlIiBpZD0idXNlNTIzMzYiIHg9IjAiIHk9IjAiIHdpZHRoPSIxMDAlIiBoZWlnaHQ9IjEwMCUiLz4mI3hhOwkJPC9jbGlwUGF0aD4mI3hhOwkJPHBhdGggc3R5bGU9ImZpbGw6IzAwOTJkMSIgZD0ibSAzNDUuNTksMjEwLjA2IGggLTIuMSBjIC0xLjMyLC0wLjA2IC0yLjQ2LDEuMDggLTIuNCwyLjQgdiA0Ljc5IGMgMCwwLjY2IDAuMjQsMS4yNiAwLjY2LDEuNzQgMC40OCwwLjQ4IDEuMDgsMC43MiAxLjc0LDAuNzIgaCAyLjEgbCAwLjk2LDIuMTYgLTEuNTYsMS41IGMgLTAuOSwwLjk2IC0wLjksMi40NiAwLDMuNDIgbCAzLjQ4LDMuNDEgYyAwLjQ4LDAuNDggMS4wOCwwLjcyIDEuNjgsMC43MiAwLjY2LDAgMS4yNiwtMC4yNCAxLjc0LC0wLjcyIGwgMS41LC0xLjU2IDIuMTYsMC45NiB2IDIuMSBjIDAsMC42NiAwLjI0LDEuMjYgMC43MiwxLjY4IDAuNDIsMC40OCAxLjAyLDAuNzggMS42OCwwLjcyIGggNC44NSBjIDAuNiwwLjA2IDEuMjYsLTAuMjQgMS42OCwtMC42NiAwLjQ4LC0wLjQ4IDAuNzIsLTEuMDggMC43MiwtMS43NCB2IC0yLjEgbCAyLjE2LC0wLjk2IDEuNSwxLjU2IGMgMC40OCwwLjQ4IDEuMDgsMC43MiAxLjc0LDAuNzIgMC42LDAgMS4yLC0wLjI0IDEuNjgsLTAuNzIgbCAzLjQyLC0zLjQ3IGMgMC45LC0wLjk2IDAuOSwtMi40IDAsLTMuMzYgbCAtMS41LC0xLjUgMC45NiwtMi4xNiBoIDIuMSBjIDAuNjYsMCAxLjI2LC0wLjI0IDEuNzQsLTAuNzIgMC40MiwtMC40OCAwLjY2LC0xLjA4IDAuNjYsLTEuNzQgdiAtNC43OSBjIDAsLTEuMzIgLTEuMDgsLTIuNDYgLTIuNDYsLTIuNCBoIC0yLjA0IGwgLTAuOSwtMi4xNiAxLjUsLTEuNTYgYyAwLjQyLC0wLjQyIDAuNjYsLTEuMDggMC42NiwtMS42OCAwLC0wLjY2IC0wLjI0LC0xLjI2IC0wLjY2LC0xLjY4IGwgLTMuNTQsLTMuNDcgYyAtMC40MiwtMC40MiAtMS4wMiwtMC42NiAtMS42MiwtMC42NiAtMC42NiwwIC0xLjI2LDAuMjQgLTEuNzQsMC42NiBsIC0xLjUsMS41IC0yLjE2LC0wLjkgdiAtMi4xIGMgMCwtMS4zMiAtMS4wOCwtMi40NiAtMi40NiwtMi40IGggLTQuNzkgYyAtMS4zMiwtMC4wNiAtMi40NiwxLjA4IC0yLjQsMi40IHYgMi4xIGwgLTIuMjIsMC45IC0xLjUsLTEuNSBjIC0wLjQyLC0wLjQyIC0xLjA4LC0wLjY2IC0xLjY4LC0wLjY2IC0wLjY2LDAgLTEuMjYsMC4yNCAtMS42OCwwLjY2IGwgLTMuNDgsMy40NyBjIC0wLjQyLDAuNDIgLTAuNjYsMS4wMiAtMC42NiwxLjY4IDAsMC42IDAuMjQsMS4yNiAwLjY2LDEuNzQgbCAxLjU2LDEuNSB6IG0gMTYuMzYsLTExLjIgdiAzLjc3IGwgNi4xMSwyLjIyIDIuNDYsLTIuNDYgMi4zNCwyLjI4IC0yLjQ2LDIuNTIgMi40Niw2LjA1IGggMy41NCB2IDMuMjQgaCAtMy41NCBsIC0yLjQ2LDYuMTEgMi40NiwyLjQ2IC0yLjI4LDIuMjggLTIuNjQsLTIuNyAtNS45OSwyLjc2IHYgMy41MyBoIC0zLjE4IHYgLTMuNTMgbCAtNS45OSwtMi43NiAtMi42NCwyLjc2IC0yLjI4LC0yLjM0IDIuNDYsLTIuNDYgLTIuMjIsLTYuMTEgaCAtMy43OCB2IC0zLjI0IGggMy43OCBsIDIuMjIsLTYuMTEgLTIuNDYsLTIuNDYgMi4yOCwtMi4yOCAyLjUyLDIuNDYgNi4xMSwtMi4yMiB2IC0zLjc3IHoiIGNsaXAtcGF0aD0idXJsKCNTVkdJRF82XykiIGlkPSJwYXRoNTIzMzkiIGlua3NjYXBlOmNvbm5lY3Rvci1jdXJ2YXR1cmU9IjAiLz4mI3hhOwkJPHBhdGggc3R5bGU9ImZpbGw6IzVhN2E5NCIgZD0ibSAzMzYuMywyMTQuOTEgaCAtNi40MSBjIC0yLjE2LDAgLTIuMTYsLTMuMjQgMCwtMy4yNCBoIDYuNDEgYyAyLjE2LDAuMDEgMi4xNiwzLjI0IDAsMy4yNCB6IiBjbGlwLXBhdGg9InVybCgjU1ZHSURfNl8pIiBpZD0icGF0aDUyMzQxIiBpbmtzY2FwZTpjb25uZWN0b3ItY3VydmF0dXJlPSIwIi8+JiN4YTsJCTxwYXRoIHN0eWxlPSJmaWxsOiM1YTdhOTQiIGQ9Im0gMzM5LjQ4LDIwNS4yNyBoIC02LjQxIGMgLTIuMSwwIC0yLjEsLTMuMTggMCwtMy4xOCBoIDYuNDEgYyAyLjE1LDAgMi4xNSwzLjE4IDAsMy4xOCB6IiBjbGlwLXBhdGg9InVybCgjU1ZHSURfNl8pIiBpZD0icGF0aDUyMzQzIiBpbmtzY2FwZTpjb25uZWN0b3ItY3VydmF0dXJlPSIwIi8+JiN4YTsJCTxwYXRoIHN0eWxlPSJmaWxsOiM1YTdhOTQiIGQ9Im0gMzM5LjQ4LDIyNC41NiBoIC0zLjI0IGMgLTIuMTYsMCAtMi4xNiwtMy4yNCAwLC0zLjI0IGggMy4yNCBjIDIuMTUsMCAyLjE1LDMuMjQgMCwzLjI0IHoiIGNsaXAtcGF0aD0idXJsKCNTVkdJRF82XykiIGlkPSJwYXRoNTIzNDUiIGlua3NjYXBlOmNvbm5lY3Rvci1jdXJ2YXR1cmU9IjAiLz4mI3hhOwkJPHBhdGggc3R5bGU9ImZpbGw6IzAwOTJkMSIgZD0ibSAzNTYuNDQsMjIxLjI2IGMgLTAuMywwIC0wLjU0LC0wLjA2IC0wLjcyLC0wLjI0IC0wLjI0LC0wLjE4IC0wLjMsLTAuNDggLTAuMywtMC43MiB2IC0xMC43OCBjIDAsLTAuMyAwLjA2LC0wLjU0IDAuMywtMC43OCAwLjE4LC0wLjE4IDAuNDIsLTAuMyAwLjcyLC0wLjMgMC4xOCwwIDAuMzYsMC4wNiAwLjU0LDAuMTIgbCAxMC43Myw1LjU3IGMgMC43MiwwLjQyIDAuNzIsMS40NCAwLDEuOCBsIC0xMC43Myw1LjIxIGMgLTAuMTgsMC4wNiAtMC4zNiwwLjEyIC0wLjU0LDAuMTIgeiIgY2xpcC1wYXRoPSJ1cmwoI1NWR0lEXzZfKSIgaWQ9InBhdGg1MjM0NyIgaW5rc2NhcGU6Y29ubmVjdG9yLWN1cnZhdHVyZT0iMCIvPiYjeGE7CTwvZz4mI3hhOzwvZz4mI3hhOzwvc3ZnPg==;" vertex="1" parent="1">
          <mxGeometry x="240" y="510" width="51" height="38" as="geometry" />
        </mxCell>
        <mxCell id="H4fzVMG0sjHqZXUunfQU-25" value="BookInOut" style="sketch=0;html=1;dashed=0;whitespace=wrap;fillColor=#2875E2;strokeColor=#ffffff;points=[[0.005,0.63,0],[0.1,0.2,0],[0.9,0.2,0],[0.5,0,0],[0.995,0.63,0],[0.72,0.99,0],[0.5,1,0],[0.28,0.99,0]];verticalLabelPosition=bottom;align=center;verticalAlign=top;shape=mxgraph.kubernetes.icon;prIcon=api" vertex="1" parent="1">
          <mxGeometry x="520" y="390" width="50" height="48" as="geometry" />
        </mxCell>
        <mxCell id="H4fzVMG0sjHqZXUunfQU-26" value="" style="endArrow=classic;html=1;rounded=0;entryX=0.5;entryY=0;entryDx=0;entryDy=0;entryPerimeter=0;exitX=0.91;exitY=1;exitDx=0;exitDy=0;exitPerimeter=0;" edge="1" parent="1" source="H4fzVMG0sjHqZXUunfQU-28" target="H4fzVMG0sjHqZXUunfQU-25">
          <mxGeometry width="50" height="50" relative="1" as="geometry">
            <mxPoint x="730" y="448" as="sourcePoint" />
            <mxPoint x="730" y="540" as="targetPoint" />
          </mxGeometry>
        </mxCell>
        <mxCell id="H4fzVMG0sjHqZXUunfQU-28" value="" style="strokeWidth=2;html=1;shape=mxgraph.flowchart.direct_data;whiteSpace=wrap;" vertex="1" parent="1">
          <mxGeometry x="430" y="320" width="100" height="40" as="geometry" />
        </mxCell>
        <mxCell id="H4fzVMG0sjHqZXUunfQU-29" value="" style="endArrow=classic;html=1;rounded=0;entryX=0.08;entryY=1;entryDx=0;entryDy=0;entryPerimeter=0;exitX=1;exitY=0.25;exitDx=0;exitDy=0;" edge="1" parent="1" source="H4fzVMG0sjHqZXUunfQU-24" target="H4fzVMG0sjHqZXUunfQU-28">
          <mxGeometry width="50" height="50" relative="1" as="geometry">
            <mxPoint x="516" y="370" as="sourcePoint" />
            <mxPoint x="555" y="400" as="targetPoint" />
          </mxGeometry>
        </mxCell>
        <mxCell id="H4fzVMG0sjHqZXUunfQU-30" value="" style="endArrow=classic;html=1;rounded=0;entryX=0.5;entryY=1;entryDx=0;entryDy=0;exitX=0.25;exitY=0;exitDx=0;exitDy=0;" edge="1" parent="1" source="H4fzVMG0sjHqZXUunfQU-24" target="H4fzVMG0sjHqZXUunfQU-8">
          <mxGeometry width="50" height="50" relative="1" as="geometry">
            <mxPoint x="301" y="530" as="sourcePoint" />
            <mxPoint x="448" y="370" as="targetPoint" />
          </mxGeometry>
        </mxCell>
      </root>
    </mxGraphModel>
  </diagram>
</mxfile>
